<svg xmlns:rdf="http://www.w3.org/1999/02/22-rdf-syntax-ns#" xmlns="http://www.w3.org/2000/svg" height="297mm" width="210mm" version="1.1" xmlns:cc="http://creativecommons.org/ns#" xmlns:dc="http://purl.org/dc/elements/1.1/" viewBox="0 0 744.09448819 1052.3622047">
 <g stroke="#fff" stroke-width="3">
  <path transform="rotate(90)" d="m852-130a150 99.2 0 0 1 -74.8 85.9 150 99.2 0 0 1 -150 -0.000003 150 99.2 0 0 1 -74.8 -85.9l150 0.00001z"/>
  <path transform="rotate(-90)" d="m-553 615a150 99.2 0 0 1 -74.8 85.9 150 99.2 0 0 1 -150 0 150 99.2 0 0 1 -74.8 -85.9h150z"/>
  <rect rx="3.95" ry="3.73" height="319" width="64" y="543" x="131"/>
  <rect rx="3.95" ry="3.73" height="319" width="64" y="543" x="551"/>
 </g>
 <g opacity=".970" transform="matrix(1.32 0 0 .415 154 568)">
  <g transform="matrix(1 0 0 1.23 0 -158)">
   <g transform="matrix(.792 0 0 .945 36.5 37.3)">
    <g transform="matrix(.985 0 0 1.74 -.965 -305)">
     <path d="m0 223v8.31h330v-8.31h-330zm0 81.2v8.31h330v-8.31h-330zm0 81.5v8.31h330v-8.31h-330zm0 81.5v8.31h330v-8.31h-330zm0 81.5v8.31h330v-8.31h-330z"/>
     <path d="m170 557c8.51 0 16.7-0.902 25.2-2.06v7.33c0 15-0.301 30.5-1.2 45.5-2.04 32.3-23.8 61.9-55.8 61.9-17.6 0-32.9-9.69-41.4-24.4 3.52 1.76 7.03 2.65 11.2 2.65 16.7 0 30.8-14.1 30.8-30.8 0-18.2-13.2-34.1-30.8-34.1-19.4 0-36.4 15-36.4 34.1 0 36.7 29.1 66.6 65.8 66.6 39.3 0 67.8-34.3 70.2-74.3 0.902-15.6 1.5-31.4 1.5-47.3v-10.3c9.68-2.65 18.8-6.46 27-12.6 24.1-18.2 34.6-43.7 34.6-68.4 0-43.4-32.9-85.1-83.4-85.1-0.301 0-0.601 0.301-0.902 0.301-6.18-24.1-12.9-48.1-20.6-71.9 32-37 61.3-74.9 61.3-123 0-39.3-22.3-96-47.2-125-0.902-0.902-2.06-1.2-3.23-1.2-1.2 0-2.34 0.601-3.23 1.2-31.1 23.5-49 59.6-49 98.3 0 18.2 0.902 35.8 2.63 53.7 2.95 23.8 8.81 47.3 16.2 70.2-38.8 44.9-81.9 88.1-81.9 147 0 65.8 47.3 122 109 122zm38.4-18.8c-1.2-39.6-6.45-81-13.8-117 32.9 4.99 53.4 33.8 53.4 62.2 0 23.5-16.1 47-39.6 54.3zm-37.6 4.69c-44.3 0-86.6-36.7-86.6-81 0-53.7 35.5-94.5 71-135 6.16 20.3 12 40.5 17 61-34.9 6.46-55.2 35.2-55.2 64.9 0 22.6 12 46.1 38.2 60.2 0.902 0.301 1.76 0.601 2.95 0.601 3.82 0 7.03-3.53 7.03-7.05 0-1.76-0.601-3.52-2.34-4.99-18.2-10.6-26.7-26.1-26.7-40.5 0-19.7 16.1-37.9 44-39.6 7.94 36.4 13.2 79.5 14.7 120-7.92 1.2-15.9 1.5-24.1 1.5zm23-430c9.11 19.7 11.5 28.8 11.5 51.7 0 42.9-23.2 77.8-50.5 111-6.76-23.5-14.1-46.4-14.1-74.9 0-36.7 20.5-70.4 53.1-87.8z"/>
    </g>
   </g>
  </g>
 </g>
 <path d="m51.2 701 55-0.515c2.57-282 10.2-454 267-453 256 1.17 267 176 268 454l58.1 0.515c1-270-1-499-325-499-324 1-324 228-323 498z" fill-rule="evenodd" stroke="#fff" stroke-width="2.16"/>
</svg>
